<svg preserveAspectRatio="none" overflow="visible" style="display: block;" width="11.0347" height="42.9" viewBox="0 0 11.0347 42.9" fill="none" xmlns="http://www.w3.org/2000/svg">
<path id="Vector 31" d="M10.6862 42.7784C10.886 42.7709 11.0419 42.6029 11.0344 42.4031L10.9131 39.1476C10.9056 38.9478 10.7376 38.7919 10.5379 38.7994C10.3381 38.8068 10.1822 38.9748 10.1896 39.1746L10.2975 42.0684L7.40368 42.1763C7.20391 42.1837 7.04799 42.3517 7.05544 42.5515C7.06289 42.7513 7.23088 42.9072 7.43066 42.8997L10.6862 42.7784ZM10.6727 42.4166C10.919 42.1513 10.919 42.1514 10.919 42.1514C10.919 42.1513 10.919 42.1513 10.9189 42.1512C10.9188 42.1511 10.9185 42.1509 10.9181 42.1505C10.9174 42.1499 10.9162 42.1487 10.9146 42.1472C10.9113 42.1441 10.9062 42.1394 10.8994 42.1329C10.8858 42.1201 10.8652 42.1005 10.838 42.0744C10.7836 42.0222 10.703 41.9439 10.5994 41.8406C10.392 41.6341 10.0927 41.3279 9.72706 40.9316C8.99566 40.139 8.00027 38.9874 6.94704 37.5543C4.83742 34.6837 2.51133 30.7046 1.59287 26.2324L1.23829 26.3052L0.883708 26.378C1.83153 30.9932 4.22266 35.0697 6.36368 37.983C7.43578 39.4418 8.44907 40.6142 9.19501 41.4226C9.56808 41.8269 9.87454 42.1404 10.0884 42.3535C10.1953 42.46 10.2791 42.5415 10.3366 42.5966C10.3653 42.6242 10.3874 42.6452 10.4025 42.6595C10.4101 42.6666 10.4159 42.6721 10.4199 42.6758C10.4219 42.6777 10.4235 42.6791 10.4246 42.6802C10.4251 42.6807 10.4255 42.6811 10.4259 42.6814C10.426 42.6815 10.4262 42.6817 10.4263 42.6817C10.4264 42.6819 10.4265 42.6819 10.6727 42.4166ZM1.23829 26.3052L1.59287 26.2324C-0.257835 17.2209 0.892224 8.11619 4.61907 0.311974L4.29242 0.155987L3.96578 0C0.169716 7.94917 -0.998155 17.2148 0.883708 26.378L1.23829 26.3052Z" fill="#666666"/>
</svg>
