<svg preserveAspectRatio="none" overflow="visible" style="display: block;" width="534.76" height="358.68" viewBox="0 0 534.76 358.68" fill="none" xmlns="http://www.w3.org/2000/svg">
<g id="Group 76">
<g id="Group 71">
<path id="Rectangle 137" d="M478.936 179.144V357.592H319.645V179.144H478.936Z" stroke="black" stroke-width="2.17656"/>
<rect id="Rectangle 135" x="1.08828" y="121.213" width="239.184" height="157.989" fill="white" stroke="black" stroke-width="2.17656"/>
<path id="Rectangle 136" d="M479.407 1.08789L478.937 179.099H82.284V1.08789H479.407Z" fill="white" stroke="black" stroke-width="2.17656"/>
<rect id="Rectangle 138" x="330.593" y="280.403" width="203.079" height="77.1889" fill="white" stroke="black" stroke-width="2.17656"/>
<rect id="Rectangle 139" x="70.3748" y="122.613" width="169.046" height="65.2969" fill="white"/>
<rect id="Rectangle 140" x="321.294" y="120.584" width="155.994" height="180.625" fill="white"/>
</g>
<path id="Rectangle 141" d="M440.459 356.391V281.401H532.678V356.391H440.459Z" fill="#BED9F2"/>
<rect id="Rectangle 158" x="247.407" y="123.32" width="120.417" height="73.8919" transform="rotate(-90 247.407 123.32)" fill="#BED9F2"/>
<path id="Rectangle 144" d="M320.773 178.055H441.715V356.315L320.773 356.602V178.055Z" fill="#BFABD2"/>
<rect id="Rectangle 157" x="319.233" y="2.90167" width="158.164" height="119.711" fill="#BFABD2"/>
<path id="Rectangle 156" d="M438.808 179.936H477.768L477.122 281.196H438.808V179.936Z" fill="#BFABD2"/>
<path id="Rectangle 160" d="M375.863 149.832H477.122L477.883 179.936H375.863V149.832Z" fill="#BFABD2"/>
<rect id="Rectangle 161" x="377.063" y="122.349" width="100.104" height="27.8066" fill="#BFABD2"/>
<rect id="Rectangle 145" x="47.4542" y="122.465" width="191.572" height="155.994" fill="#ADC0AD"/>
<path id="Rectangle 159" d="M239.026 122.465H378.6V178.055H239.026V122.465Z" fill="#ADC0AD"/>
<rect id="Rectangle 147" x="83.2029" y="2.90368" width="164.204" height="120.417" fill="#F69FB5"/>
<path id="Rectangle 146" d="M2.18845 122.465H47.4549V278.459L2.19239 278.185L2.18845 122.465Z" fill="#F5EDB7"/>
</g>
</svg>
